<!DOCTYPE svg PUBLIC "-//W3C//DTD SVG 1.1//EN" "http://www.w3.org/Graphics/SVG/1.1/DTD/svg11.dtd">

<!-- Uploaded to: SVG Repo, www.svgrepo.com, Transformed by: SVG Repo Mixer Tools -->
<svg width="800px" height="800px" viewBox="-102.4 -102.4 1228.80 1228.80" class="icon" version="1.1" xmlns="http://www.w3.org/2000/svg" fill="#a1286a" stroke="#a1286a">

<g id="SVGRepo_bgCarrier" stroke-width="0" transform="translate(0,0), scale(1)">

<path transform="translate(-102.4, -102.4), scale(38.4)" d="M16,28.82145468145609C18.092551936433264,27.947931432092584,19.07094106041925,25.64280858996727,20.60112575162202,23.96938357382288C21.673585432767656,22.796531126956047,22.883182018926743,21.809117580097794,23.673106441669475,20.430070069618523C24.46105962528843,19.054463942046198,25.20333403895523,17.584856571748297,25.166023386642337,16C25.129040061883636,14.429047425990166,24.053034089187072,13.14689017112715,23.46731831727425,11.688741759397091C22.777718452418217,9.971972302455189,22.82478284177472,7.824285416730385,21.405329470522705,6.637694725405304C19.965238767273895,5.433852276088633,17.87699147538812,5.44738098319186,16,5.446444137021899C14.122369396177888,5.445506971849411,11.96256784044321,5.3494023467654195,10.591554348357025,6.632297341379395C9.213408740334177,7.921866052837855,10.19594750245051,10.492704129745452,9.025106676765363,11.973043462261554C7.532339637983214,13.860406554934446,4.278514991005931,13.857808101237637,3.182382360100746,15.999999999999998C2.0386956707169435,18.235127658499792,2.2309956231589387,21.07781638558896,3.17608639844444,23.40388996992259C4.162840753854621,25.83250667042145,6.0619834755569695,28.010481451284498,8.476765030995004,29.030625203595505C10.827775862037583,30.023828504118704,13.644777216460838,29.804628299769625,16,28.82145468145609" fill="#7ed0ec" strokewidth="0"/>

</g>

<g id="SVGRepo_tracerCarrier" stroke-linecap="round" stroke-linejoin="round" stroke="#CCCCCC" stroke-width="124.928">

<path id="Vector" fill-rule="evenodd" clip-rule="evenodd" d="M37.2 53.3992C37.2 52.7365 36.6628 52.1992 36 52.1992H34.8C34.1373 52.1992 33.6 52.7365 33.6 53.3992V56.2636C33.6 56.9129 33.0834 57.4433 32.4347 57.4739C30.3013 57.5744 28.1719 57.7834 26.0546 58.1011L19.444 59.0926C18.2692 59.2688 17.4 60.2782 17.4 61.4662V62.0992C17.4 62.4304 17.6686 62.6992 18 62.6992H52.8C53.1314 62.6992 53.4 62.4304 53.4 62.0992V61.4662C53.4 60.2782 52.5309 59.2688 51.3561 59.0926L44.7454 58.1011C42.6282 57.7834 40.4987 57.5744 38.3653 57.4739C37.7167 57.4433 37.2 56.9129 37.2 56.2636V53.3992Z" fill="url(#paint0_radial_5179_1308)"></path>

<path d="M992 704.8V124c0-14.4-11.2-26.4-25.6-26.4H57.6c-14.4 0-25.6 12-25.6 26.4v581.6" fill="#a1286a"/>

<path d="M84 149.6h856v503.2h-856z" fill="#b937e1"/>

<path d="M376 137.6l576 528v-528z" fill="#1c0e20"/>

<path d="M32 704v72.8c0 14.4 11.2 26.4 25.6 26.4h908c14.4 0 25.6-12 25.6-26.4V704" fill="#a1286a"/>

<path id="Vector_2" d="M18.6 60.7388C18.6 60.2306 18.9587 59.796 19.4602 59.711C22.0196 59.2775 29.7585 58.0508 35.4 58.0508C41.0415 58.0508 48.7804 59.2775 51.3398 59.711C51.8412 59.796 52.2 60.2306 52.2 60.7388C52.2 60.902 52.0575 61.0268 51.8967 61.0004C50.1219 60.707 40.9704 59.2409 35.4 59.2409C29.8295 59.2409 20.678 60.707 18.9033 61.0004C18.7425 61.0268 18.6 60.902 18.6 60.7388Z" fill="url(#paint1_radial_5179_1308)"></path>

"url(#paint2_linear_5179_1308)"

</g>

<g id="SVGRepo_iconCarrier">

<path d="M403.2 803.2c-0.8 0-8.8 64-9.6 65.6-1.6 13.6-4 21.6-11.2 28-2.4 2.4-4.8 3.2-7.2 4.8-5.6 4-10.4 6.4-16.8 10.4-4.8 2.4-10.4 12-4.8 14.4h316.8c5.6-2.4 0-11.2-4.8-13.6-6.4-4-11.2-7.2-16.8-12-2.4-1.6-4.8-4-7.2-6.4-6.4-6.4-9.6-12-11.2-25.6 0-1.6-9.6-71.2-9.6-65.6" fill="#a1286a"/>

<path d="M992 704.8V124c0-14.4-11.2-26.4-25.6-26.4H57.6c-14.4 0-25.6 12-25.6 26.4v581.6" fill="#a1286a"/>

<path d="M84 149.6h856v503.2h-856z" fill="#b937e1"/>

<path d="M376 137.6l576 528v-528z" fill="#1c0e20"/>

<path d="M32 704v72.8c0 14.4 11.2 26.4 25.6 26.4h908c14.4 0 25.6-12 25.6-26.4V704" fill="#a1286a"/>

<path d="M511.2 754.4m-24 0a24 24 0 1 0 48 0 24 24 0 1 0-48 0Z" fill="#414343"/>

<path d="M623.2 827.2c-0.8-24-1.6-24-1.6-24H404s-0.8 0-1.6 24h220.8z" fill="#0D1014"/>

<path d="M449.6 568.8l-1.6 4z" fill="#99D9E6"/>

<path d="M353.6 934.4c-0.8 0-2.4 0-3.2-0.8-4-1.6-7.2-5.6-7.2-10.4 0-8 6.4-16 11.2-18.4l3.2-1.6c4.8-2.4 8.8-4.8 12-8 1.6-0.8 2.4-1.6 4-2.4 0.8-0.8 1.6-0.8 2.4-1.6 4.8-4 6.4-10.4 8-22.4 8-67.2 8-67.2 16-67.2 4.8 0 8 3.2 8 8v2.4c-0.8 5.6-7.2 54.4-8 58.4-1.6 14.4-4.8 24.8-13.6 32.8-1.6 1.6-4 3.2-5.6 4-0.8 0.8-1.6 0.8-2.4 1.6-4.8 4-9.6 6.4-14.4 8.8l-3.2 1.6H656c-5.6-3.2-10.4-7.2-15.2-10.4-1.6-1.6-3.2-3.2-5.6-4.8l-2.4-1.6c-8.8-8-12-16.8-13.6-30.4-0.8-4-6.4-48.8-8-58.4 0-0.8-0.8-1.6-0.8-3.2 0-4 3.2-8 7.2-8.8 8.8-0.8 8.8-0.8 16.8 67.2 1.6 12.8 4 16.8 8 20.8l2.4 2.4c1.6 1.6 3.2 2.4 4 4 5.6 4 9.6 7.2 16 11.2 4.8 2.4 12 10.4 11.2 17.6 0 4.8-3.2 8-7.2 10.4-0.8 0.8-2.4 0.8-3.2 0.8l-312-1.6zM992 712.8c-4.8 0-8-3.2-8-8V124c0-10.4-8-18.4-17.6-18.4H57.6c-9.6 0-17.6 8-17.6 18.4v581.6c0 4.8-3.2 8-8 8s-8-3.2-8-8V124c0-19.2 15.2-34.4 33.6-34.4h908c18.4 0 33.6 15.2 33.6 34.4v581.6c0.8 4-2.4 7.2-7.2 7.2z" fill="#6A576D"/>

<path d="M940 660.8h-856c-4.8 0-8-3.2-8-8V149.6c0-4.8 3.2-8 8-8h856c4.8 0 8 3.2 8 8v503.2c0 4.8-4 8-8 8z m-848-16h840V157.6h-840v487.2zM966.4 811.2H57.6c-18.4 0-33.6-15.2-33.6-34.4V704c0-4.8 3.2-8 8-8h960c4.8 0 8 3.2 8 8v72.8c0 19.2-15.2 34.4-33.6 34.4zM40 712v64.8c0 10.4 8 18.4 17.6 18.4h908c9.6 0 17.6-8 17.6-18.4V712H40z" fill="#6A576D"/>

</g>

</svg>